<?xml version="1.0" encoding="UTF-8"?>
<!DOCTYPE svg PUBLIC "-//W3C//DTD SVG 1.1//EN" "http://www.w3.org/Graphics/SVG/1.1/DTD/svg11.dtd">
<svg xmlns="http://www.w3.org/2000/svg" version="1.1" width="187px" height="187px" style="shape-rendering:geometricPrecision; text-rendering:geometricPrecision; image-rendering:optimizeQuality; fill-rule:evenodd; clip-rule:evenodd" xmlns:xlink="http://www.w3.org/1999/xlink">
<g><path style="opacity:0.017" fill="#f0f0f0" d="M 66.5,86.5 C 66.6653,82.8183 66.4986,79.1516 66,75.5C 65.501,79.8206 65.3343,84.1539 65.5,88.5C 64.6753,92.6472 64.1753,96.9805 64,101.5C 63.5002,92.1726 63.3335,82.8393 63.5,73.5C 64.8333,73.5 66.1667,73.5 67.5,73.5C 67.5715,76.1933 67.9049,78.8599 68.5,81.5C 68.5643,83.5566 67.8976,85.2233 66.5,86.5 Z"/></g>
<g><path style="opacity:1" fill="#151515" d="M 54.5,93.5 C 53.5,93.8333 52.8333,94.5 52.5,95.5C 52.1667,95.5 51.8333,95.5 51.5,95.5C 44.5,95.5 37.5,95.5 30.5,95.5C 30.1667,95.5 29.8333,95.5 29.5,95.5C 29.5,94.8333 29.1667,94.5 28.5,94.5C 28.1667,94.5 27.8333,94.5 27.5,94.5C 27.5,94.1667 27.5,93.8333 27.5,93.5C 27.5,91.1667 27.5,88.8333 27.5,86.5C 30.1667,86.5 32.8333,86.5 35.5,86.5C 35.5,84.8333 35.5,83.1667 35.5,81.5C 35.6107,80.8826 35.944,80.3826 36.5,80C 39.5,79.3333 42.5,79.3333 45.5,80C 46.4061,81.6995 46.7394,83.5328 46.5,85.5C 54.3933,83.4105 57.06,86.0772 54.5,93.5 Z M 38.5,83.5 C 40.288,83.2148 41.9547,83.5481 43.5,84.5C 42.6667,84.8333 41.8333,85.1667 41,85.5C 39.6244,85.3158 38.7911,84.6491 38.5,83.5 Z"/></g>
<g><path style="opacity:1" fill="#010101" d="M 121.5,101.5 C 121.5,101.167 121.5,100.833 121.5,100.5C 122.489,95.0247 122.822,89.358 122.5,83.5C 123.833,83.5 125.167,83.5 126.5,83.5C 126.5,89.8333 126.5,96.1667 126.5,102.5C 124.708,102.634 123.042,102.301 121.5,101.5 Z"/></g>
<g><path style="opacity:0.488" fill="#878787" d="M 128.5,101.5 C 126.777,102.8 124.61,103.467 122,103.5C 119.833,103.333 117.667,103.167 115.5,103C 114.944,102.617 114.611,102.117 114.5,101.5C 116.334,102.494 118.001,102.494 119.5,101.5C 120.167,101.5 120.833,101.5 121.5,101.5C 123.042,102.301 124.708,102.634 126.5,102.5C 126.5,96.1667 126.5,89.8333 126.5,83.5C 125.167,83.5 123.833,83.5 122.5,83.5C 122.822,89.358 122.489,95.0247 121.5,100.5C 122.055,96.9878 121.388,93.9878 119.5,91.5C 118.791,90.596 117.791,90.2627 116.5,90.5C 117.919,89.5489 119.585,89.2155 121.5,89.5C 121.859,87.2341 121.192,85.4007 119.5,84C 121.937,82.6253 124.603,82.1253 127.5,82.5C 127.177,89.0221 127.51,95.3554 128.5,101.5 Z"/></g>
<g><path style="opacity:1" fill="#191919" d="M 80.5,84.5 C 82.5,84.5 84.5,84.5 86.5,84.5C 87.0078,88.1974 87.6745,91.8641 88.5,95.5C 88.8333,96.8333 89.1667,98.1667 89.5,99.5C 89.5,99.8333 89.5,100.167 89.5,100.5C 88.1851,102.599 86.5184,102.933 84.5,101.5C 83.525,98.9333 82.8583,96.2666 82.5,93.5C 82.7373,92.209 82.404,91.209 81.5,90.5C 81.5,90.1667 81.5,89.8333 81.5,89.5C 81.3713,87.7839 81.038,86.1172 80.5,84.5 Z"/></g>
<g><path style="opacity:1" fill="#090909" d="M 97.5,84.5 C 97.5,90.5 97.5,96.5 97.5,102.5C 95.5853,102.784 93.9187,102.451 92.5,101.5C 92.0726,97.9957 92.0726,94.329 92.5,90.5C 92.4431,89.391 92.1098,88.391 91.5,87.5C 91.5,86.5 91.5,85.5 91.5,84.5C 93.5,84.5 95.5,84.5 97.5,84.5 Z"/></g>
<g><path style="opacity:0.155" fill="#bababa" d="M 97.5,84.5 C 98.4916,84.3284 99.1583,84.6618 99.5,85.5C 98.1922,91.0373 98.1922,96.7039 99.5,102.5C 96.5,103.833 93.5,103.833 90.5,102.5C 90.9569,101.702 91.6236,101.369 92.5,101.5C 93.9187,102.451 95.5853,102.784 97.5,102.5C 97.5,96.5 97.5,90.5 97.5,84.5 Z"/></g>
<g><path style="opacity:0.006" fill="#f0f1f0" d="M 99.5,85.5 C 100.525,85.8966 100.692,86.5632 100,87.5C 99.5357,86.9056 99.369,86.2389 99.5,85.5 Z"/></g>
<g><path style="opacity:0.624" fill="#636363" d="M 80.5,84.5 C 81.038,86.1172 81.3713,87.7839 81.5,89.5C 80.6618,89.8417 80.3284,90.5084 80.5,91.5C 80.837,95.6214 80.5036,98.9548 79.5,101.5C 80.0868,95.6973 79.4202,90.1973 77.5,85C 78.448,84.5172 79.448,84.3505 80.5,84.5 Z"/></g>
<g><path style="opacity:0.736" fill="#636363" d="M 35.5,81.5 C 35.5,83.1667 35.5,84.8333 35.5,86.5C 32.8333,86.5 30.1667,86.5 27.5,86.5C 27.5,88.8333 27.5,91.1667 27.5,93.5C 26.5269,91.0521 26.1936,88.3854 26.5,85.5C 29.1667,85.5 31.8333,85.5 34.5,85.5C 34.2322,83.901 34.5655,82.5676 35.5,81.5 Z"/></g>
<g><path style="opacity:0.345" fill="#adadad" d="M 104.5,90.5 C 106.167,89.1667 107.833,89.1667 109.5,90.5C 108.508,90.3284 107.842,90.6618 107.5,91.5C 106.833,91.8333 106.167,92.1667 105.5,92.5C 105.672,91.5084 105.338,90.8417 104.5,90.5 Z"/></g>
<g><path style="opacity:0.398" fill="#a7a7a7" d="M 132.5,90.5 C 134.5,89.1667 136.5,89.1667 138.5,90.5C 137.209,90.2627 136.209,90.596 135.5,91.5C 134.833,91.5 134.5,91.8333 134.5,92.5C 133.833,91.8333 133.167,91.1667 132.5,90.5 Z"/></g>
<g><path style="opacity:0.101" fill="#d2d2d2" d="M 149.5,90.5 C 148.167,90.5 146.833,90.5 145.5,90.5C 144.833,90.5 144.5,90.8333 144.5,91.5C 141.402,91.5875 141.068,91.0875 143.5,90C 145.712,89.2109 147.712,89.3775 149.5,90.5 Z"/></g>
<g><path style="opacity:1" fill="#181818" d="M 107.5,91.5 C 107.842,90.6618 108.508,90.3284 109.5,90.5C 111.912,90.6941 112.912,92.0274 112.5,94.5C 111.432,95.4345 110.099,95.7678 108.5,95.5C 108.768,93.901 108.434,92.5676 107.5,91.5 Z"/></g>
<g><path style="opacity:1" fill="#1a1a1a" d="M 116.5,90.5 C 117.791,90.2627 118.791,90.596 119.5,91.5C 119.5,94.8333 119.5,98.1667 119.5,101.5C 118.001,102.494 116.334,102.494 114.5,101.5C 114.5,101.167 114.5,100.833 114.5,100.5C 114.5,97.8333 114.5,95.1667 114.5,92.5C 114.833,91.5 115.5,90.8333 116.5,90.5 Z"/></g>
<g><path style="opacity:1" fill="#242424" d="M 132.5,90.5 C 133.167,91.1667 133.833,91.8333 134.5,92.5C 134.737,93.791 134.404,94.791 133.5,95.5C 132.833,95.5 132.167,95.5 131.5,95.5C 129.656,94.7961 129.156,93.4628 130,91.5C 130.671,90.7476 131.504,90.4142 132.5,90.5 Z"/></g>
<g><path style="opacity:1" fill="#131313" d="M 135.5,91.5 C 136.209,90.596 137.209,90.2627 138.5,90.5C 139.833,90.5 140.5,91.1667 140.5,92.5C 139.989,96.0297 140.656,99.1963 142.5,102C 141.944,102.383 141.611,102.883 141.5,103.5C 139.585,103.784 137.919,103.451 136.5,102.5C 136.815,98.6286 136.482,94.9619 135.5,91.5 Z"/></g>
<g><path style="opacity:1" fill="#1b1b1b" d="M 157.5,92.5 C 157.5,95.8333 157.5,99.1667 157.5,102.5C 155.585,102.784 153.919,102.451 152.5,101.5C 152.5,98.5 152.5,95.5 152.5,92.5C 152.167,91.8333 151.833,91.1667 151.5,90.5C 152.601,89.4017 153.934,89.235 155.5,90C 156.756,90.4169 157.423,91.2502 157.5,92.5 Z"/></g>
<g><path style="opacity:0.032" fill="#d3d3d3" d="M 81.5,90.5 C 82.404,91.209 82.7373,92.209 82.5,93.5C 81.7246,96.5628 81.7246,99.5628 82.5,102.5C 80.9255,103.631 79.2588,103.798 77.5,103C 78.0442,102.283 78.7109,101.783 79.5,101.5C 80.5036,98.9548 80.837,95.6214 80.5,91.5C 81.1667,91.5 81.5,91.1667 81.5,90.5 Z"/></g>
<g><path style="opacity:1" fill="#272727" d="M 104.5,90.5 C 105.338,90.8417 105.672,91.5084 105.5,92.5C 105.5,93.5 105.5,94.5 105.5,95.5C 105.5,95.8333 105.5,96.1667 105.5,96.5C 105.629,98.2161 105.962,99.8828 106.5,101.5C 105.791,102.404 104.791,102.737 103.5,102.5C 100.713,101.622 99.38,99.6225 99.5,96.5C 99.7237,93.2778 101.39,91.2778 104.5,90.5 Z"/></g>
<g><path style="opacity:0.004" fill="#f0f1f0" d="M 158.5,91.5 C 159.833,92.1667 159.833,92.1667 158.5,91.5 Z"/></g>
<g><path style="opacity:0.371" fill="#999999" d="M 91.5,87.5 C 92.1098,88.391 92.4431,89.391 92.5,90.5C 91.6255,93.5349 90.6255,96.5349 89.5,99.5C 89.1667,98.1667 88.8333,96.8333 88.5,95.5C 89.2513,92.754 90.2513,90.0873 91.5,87.5 Z"/></g>
<g><path style="opacity:0.181" fill="#b6b6b6" d="M 30.5,95.5 C 37.5,95.5 44.5,95.5 51.5,95.5C 51.5,95.8333 51.5,96.1667 51.5,96.5C 48.7131,97.4767 45.7131,97.81 42.5,97.5C 42.7373,98.791 42.404,99.791 41.5,100.5C 41.44,101.043 41.1067,101.376 40.5,101.5C 39.5713,100.311 39.238,98.9778 39.5,97.5C 35.9581,97.8128 32.6248,97.4794 29.5,96.5C 30.1667,96.5 30.5,96.1667 30.5,95.5 Z"/></g>
<g><path style="opacity:0.399" fill="#a2a2a2" d="M 54.5,93.5 C 55.7999,98.5999 55.7999,103.6 54.5,108.5C 54.5,108.167 54.5,107.833 54.5,107.5C 54.6655,103.486 54.4988,99.4862 54,95.5C 53.6174,96.056 53.1174,96.3893 52.5,96.5C 52.5,96.1667 52.5,95.8333 52.5,95.5C 52.8333,94.5 53.5,93.8333 54.5,93.5 Z"/></g>
<g><path style="opacity:0.222" fill="#9b9b9b" d="M 145.5,90.5 C 145.5,94.5 145.5,98.5 145.5,102.5C 146.833,102.5 148.167,102.5 149.5,102.5C 149.5,98.5 149.5,94.5 149.5,90.5C 150.167,90.5 150.833,90.5 151.5,90.5C 151.833,91.1667 152.167,91.8333 152.5,92.5C 151.235,93.5145 150.569,95.0145 150.5,97C 150.569,98.9855 151.235,100.486 152.5,101.5C 153.919,102.451 155.585,102.784 157.5,102.5C 157.5,99.1667 157.5,95.8333 157.5,92.5C 157.833,92.5 158.167,92.5 158.5,92.5C 158.249,95.909 158.583,99.2423 159.5,102.5C 153.537,103.496 147.537,103.829 141.5,103.5C 141.611,102.883 141.944,102.383 142.5,102C 140.656,99.1963 139.989,96.0297 140.5,92.5C 141.317,94.9686 141.817,97.6353 142,100.5C 142.974,98.1224 143.641,98.4557 144,101.5C 144.498,98.1832 144.665,94.8499 144.5,91.5C 144.5,90.8333 144.833,90.5 145.5,90.5 Z M 152.5,92.5 C 152.5,95.5 152.5,98.5 152.5,101.5C 151.235,100.486 150.569,98.9855 150.5,97C 150.569,95.0145 151.235,93.5145 152.5,92.5 Z"/></g>
<g><path style="opacity:1" fill="#000000" d="M 145.5,90.5 C 146.833,90.5 148.167,90.5 149.5,90.5C 149.5,94.5 149.5,98.5 149.5,102.5C 148.167,102.5 146.833,102.5 145.5,102.5C 145.5,98.5 145.5,94.5 145.5,90.5 Z"/></g>
<g><path style="opacity:1" fill="#000000" d="M 54.5,107.5 C 45.5,107.5 36.5,107.5 27.5,107.5C 26.9197,103.351 27.5864,99.6843 29.5,96.5C 32.6248,97.4794 35.9581,97.8128 39.5,97.5C 39.238,98.9778 39.5713,100.311 40.5,101.5C 41.1067,101.376 41.44,101.043 41.5,100.5C 42.404,99.791 42.7373,98.791 42.5,97.5C 45.7131,97.81 48.7131,97.4767 51.5,96.5C 51.8333,96.5 52.1667,96.5 52.5,96.5C 53.1174,96.3893 53.6174,96.056 54,95.5C 54.4988,99.4862 54.6655,103.486 54.5,107.5 Z"/></g>
<g><path style="opacity:1" fill="#212121" d="M 130.5,97.5 C 132.099,97.2322 133.432,97.5655 134.5,98.5C 134.5,99.5 134.5,100.5 134.5,101.5C 133.432,102.434 132.099,102.768 130.5,102.5C 129.833,102.167 129.167,101.833 128.5,101.5C 128.229,99.6203 128.896,98.287 130.5,97.5 Z"/></g>
<g><path style="opacity:0.498" fill="#737373" d="M 135.5,91.5 C 136.482,94.9619 136.815,98.6286 136.5,102.5C 134.389,103.742 132.389,103.742 130.5,102.5C 132.099,102.768 133.432,102.434 134.5,101.5C 135.833,100.5 135.833,99.5 134.5,98.5C 133.432,97.5655 132.099,97.2322 130.5,97.5C 130.833,96.8333 131.167,96.1667 131.5,95.5C 132.167,95.5 132.833,95.5 133.5,95.5C 133.56,96.0431 133.893,96.3764 134.5,96.5C 135.452,94.9547 135.785,93.288 135.5,91.5 Z"/></g>
<g><path style="opacity:0.008" fill="#bcbcbc" d="M 66.5,86.5 C 66.0529,100.982 66.5529,109.315 68,111.5C 66.6439,112.38 65.1439,112.714 63.5,112.5C 63.3433,111.127 63.51,109.793 64,108.5C 64.3333,109.167 64.6667,109.833 65,110.5C 65.4997,103.174 65.6663,95.8409 65.5,88.5C 65.3343,84.1539 65.501,79.8206 66,75.5C 66.4986,79.1516 66.6653,82.8183 66.5,86.5 Z"/></g>
<g><path style="opacity:0.363" fill="#858585" d="M 107.5,91.5 C 108.434,92.5676 108.768,93.901 108.5,95.5C 110.099,95.7678 111.432,95.4345 112.5,94.5C 113.167,93.8333 113.833,93.1667 114.5,92.5C 114.5,95.1667 114.5,97.8333 114.5,100.5C 113.883,100.389 113.383,100.056 113,99.5C 110.734,103.463 107.568,104.463 103.5,102.5C 104.791,102.737 105.791,102.404 106.5,101.5C 109.792,101.88 112.125,100.547 113.5,97.5C 110.914,96.52 108.247,96.1866 105.5,96.5C 105.5,96.1667 105.5,95.8333 105.5,95.5C 107.176,94.8166 107.843,93.4832 107.5,91.5 Z"/></g>
<g><path style="opacity:0.448" fill="#989898" d="M 89.5,100.5 C 89.5,101.5 89.5,102.5 89.5,103.5C 87.2188,103.923 85.5521,103.256 84.5,101.5C 86.5184,102.933 88.1851,102.599 89.5,100.5 Z"/></g>
<g><path style="opacity:0.817" fill="#3b3b3b" d="M 27.5,94.5 C 27.8333,95.8333 28.1667,95.8333 28.5,94.5C 29.1667,94.5 29.5,94.8333 29.5,95.5C 29.5,95.8333 29.5,96.1667 29.5,96.5C 27.5864,99.6843 26.9197,103.351 27.5,107.5C 36.5,107.5 45.5,107.5 54.5,107.5C 54.5,107.833 54.5,108.167 54.5,108.5C 45.1667,108.5 35.8333,108.5 26.5,108.5C 26.1805,103.637 26.5139,98.97 27.5,94.5 Z"/></g>
</svg>
